# File created by Blade
# Date/Time:  Fri Jan 16 19:41:12 2015
# Frame Rate: 120.000 fps
#------------------------------------------------------
:FULLY-SPECIFIED
:DEGREES
601
root 18.720935 35.484451 -21.510872 11.392010 9.542684 -0.118250
Spine -22.847358 -6.361545 -1.753443
Head 12.437002 -3.638485 1.734502
LeftShoulder -11.574851 -19.471533 13.308077
LeftArm -12.410593 17.794357 -25.595888
LeftForeArm 19.274227 -0.000000 2.630657
LeftHand 4.072813 -0.000000 -0.191965
LeftHandThumb1 -26.253704 0.000000 33.147579
RightShoulder -11.230633 5.312058 -26.225819
RightArm 3.793389 39.525304 -0.771737
RightForeArm -37.684666 -0.000000 4.638157
RightHand 0.700770 -0.000000 -9.560618
RightHandThumb1 -24.326973 -0.000000 -32.862282
LeftUpLeg -1.960412 0.433929 1.294829
LeftLeg -7.186840 -0.000000 0.000000
LeftFoot -20.017294 26.582695 -14.064854
LeftToeBase 24.457891 -0.000000 -0.000000
RightUpLeg -0.536165 -14.851539 -0.551218
RightLeg -4.062726 -0.000000 0.000000
RightFoot -23.596973 -24.400283 20.923454
RightToeBase 22.723266 -0.000000 -0.000000
602
root 18.718793 35.486622 -21.526031 11.439135 9.417737 -0.149269
Spine -22.851320 -6.305359 -1.695902
Head 12.397810 -3.645338 1.680996
LeftShoulder -11.604048 -19.866171 13.622542
LeftArm -12.046273 16.840305 -24.614391
LeftForeArm 19.018669 -0.000000 2.233401
LeftHand 3.889982 -0.000000 -0.207930
LeftHandThumb1 -26.253704 0.000000 33.147579
RightShoulder -11.176333 4.949368 -25.943425
RightArm 3.555835 38.940390 -0.522133
RightForeArm -37.767593 0.000000 4.353274
RightHand 0.867569 -0.000000 -9.386119
RightHandThumb1 -24.326973 -0.000000 -32.862282
LeftUpLeg -2.016456 0.563366 1.296583
LeftLeg -7.196884 -0.000000 0.000000
LeftFoot -19.998488 26.598321 -14.050556
LeftToeBase 24.432989 -0.000000 -0.000000
RightUpLeg -0.627655 -14.816223 -0.517518
RightLeg -4.078739 -0.000000 0.000000
RightFoot -23.521872 -24.316516 20.958191
RightToeBase 22.601024 -0.000000 -0.000000
603
root 18.718123 35.487243 -21.542781 11.492286 9.353622 -0.166183
Spine -22.820465 -6.291243 -1.628397
Head 12.290074 -3.543493 1.659647
LeftShoulder -11.667988 -20.317713 13.906599
LeftArm -11.691475 16.098395 -23.628021
LeftForeArm 18.485219 -0.000000 1.868228
LeftHand 3.889908 -0.000000 -0.431800
LeftHandThumb1 -26.253704 0.000000 33.147579
RightShoulder -11.193470 4.695509 -25.765205
RightArm 3.238534 38.597105 -0.158444
RightForeArm -38.246935 -0.000000 4.395561
RightHand 0.845089 -0.000000 -8.799887
RightHandThumb1 -24.326973 -0.000000 -32.862282
LeftUpLeg -2.089168 0.609296 1.296073
LeftLeg -7.199676 -0.000000 0.000000
LeftFoot -19.981004 26.639976 -14.003028
LeftToeBase 24.467819 -0.000000 -0.000000
RightUpLeg -0.708096 -14.828686 -0.490713
RightLeg -4.111564 -0.000000 0.000000
RightFoot -23.451458 -24.283676 20.846639
RightToeBase 22.726411 -0.000000 -0.000000
604
root 18.719069 35.488524 -21.556470 11.540503 9.252653 -0.182266
Spine -22.798784 -6.235205 -1.578969
Head 12.194485 -3.492023 1.638281
LeftShoulder -11.722230 -20.777070 14.218662
LeftArm -11.422066 15.357113 -22.703909
LeftForeArm 18.144242 -0.000000 1.690958
LeftHand 3.573847 0.000000 -0.602130
LeftHandThumb1 -26.253704 0.000000 33.147579
RightShoulder -11.185340 4.403771 -25.570501
RightArm 2.899542 38.213215 0.187961
RightForeArm -38.582225 -0.000000 4.394924
RightHand 0.758996 -0.000000 -8.244111
RightHandThumb1 -24.326973 -0.000000 -32.862282
LeftUpLeg -2.128510 0.694275 1.285864
LeftLeg -7.237866 -0.000000 0.000000
LeftFoot -19.966611 26.660525 -14.004720
LeftToeBase 24.447899 -0.000000 -0.000000
RightUpLeg -0.783467 -14.798536 -0.476511
RightLeg -4.140503 -0.000000 0.000000
RightFoot -23.389649 -24.218815 20.874096
RightToeBase 22.656533 -0.000000 -0.000000
605
root 18.721450 35.490313 -21.572775 11.603695 9.162327 -0.193878
Spine -22.792562 -6.192761 -1.522540
Head 12.109219 -3.442913 1.605667
LeftShoulder -11.784781 -21.252823 14.554945
LeftArm -11.185105 14.504566 -21.806180
LeftForeArm 17.829647 0.000000 1.470093
LeftHand 3.391233 -0.000000 -0.709900
LeftHandThumb1 -26.253704 0.000000 33.147579
RightShoulder -11.175832 4.169742 -25.412676
RightArm 2.546391 37.698802 0.584611
RightForeArm -38.763256 -0.000000 4.423554
RightHand 0.608482 0.000000 -7.930940
RightHandThumb1 -24.326973 -0.000000 -32.862282
LeftUpLeg -2.195004 0.754644 1.270685
LeftLeg -7.259515 -0.000000 0.000000
LeftFoot -19.940665 26.699018 -13.993728
LeftToeBase 24.425552 -0.000000 -0.000000
RightUpLeg -0.877135 -14.787019 -0.460920
RightLeg -4.171506 -0.000000 0.000000
RightFoot -23.327568 -24.163933 20.855043
RightToeBase 22.682099 -0.000000 -0.000000
606
root 18.723417 35.492550 -21.587807 11.683199 9.062641 -0.201451
Spine -22.805070 -6.132969 -1.478875
Head 12.016057 -3.409026 1.584524
LeftShoulder -11.823070 -21.771561 14.857159
LeftArm -10.964536 13.976049 -20.948906
LeftForeArm 17.517060 -0.000000 1.190072
LeftHand 3.223289 -0.000000 -0.866470
LeftHandThumb1 -26.253704 0.000000 33.147579
RightShoulder -11.174944 3.780977 -25.251475
RightArm 2.217878 37.191238 1.024568
RightForeArm -38.821916 0.000000 4.346779
RightHand 0.332116 -0.000000 -7.565087
RightHandThumb1 -24.326973 -0.000000 -32.862282
LeftUpLeg -2.269872 0.851007 1.249130
LeftLeg -7.294595 -0.000000 0.000000
LeftFoot -19.912622 26.711494 -14.013018
LeftToeBase 24.419049 -0.000000 -0.000000
RightUpLeg -0.991787 -14.763845 -0.447758
RightLeg -4.186122 -0.000000 0.000000
RightFoot -23.262735 -24.104454 20.827871
RightToeBase 22.690666 -0.000000 -0.000000
607
root 18.725029 35.494889 -21.602352 11.737745 8.981504 -0.210133
Spine -22.791735 -6.106937 -1.440591
Head 11.944501 -3.383620 1.585831
LeftShoulder -11.819498 -22.243903 15.179209
LeftArm -10.831444 13.228020 -20.105989
LeftForeArm 17.327359 -0.000000 1.022637
LeftHand 2.772977 -0.000000 -0.901462
LeftHandThumb1 -26.253704 0.000000 33.147579
RightShoulder -11.220089 3.342983 -25.008461
RightArm 2.033166 36.687728 1.466603
RightForeArm -38.858996 -0.000000 4.161112
RightHand 0.216116 0.000000 -7.330101
RightHandThumb1 -24.326973 -0.000000 -32.862282
LeftUpLeg -2.324740 0.929347 1.233510
LeftLeg -7.320958 -0.000000 0.000000
LeftFoot -19.883007 26.723179 -14.012998
LeftToeBase 24.432105 -0.000000 -0.000000
RightUpLeg -1.077756 -14.739025 -0.436357
RightLeg -4.202439 -0.000000 0.000000
RightFoot -23.212103 -24.078219 20.775165
RightToeBase 22.782534 -0.000000 -0.000000
